name C:/MyDriveSym/Projects/mobilecap/Data\Session20210823_0002\mocap\ForceDataProcessed\walkingTS3_forces.mot
datacolumns 19
datarows 12
range 1.01200000 1.01750000
endheader 
time	R_ground_force_vx	R_ground_force_vy	R_ground_force_vz	R_ground_force_px	R_ground_force_py	R_ground_force_pz	R_ground_torque_x	R_ground_torque_y	R_ground_torque_z	L_ground_force_vx	L_ground_force_vy	L_ground_force_vz	L_ground_force_px	L_ground_force_py	L_ground_force_pz	L_ground_torque_x	L_ground_torque_y	L_ground_torque_z	
          1.01200000	          0.00000000	          0.00000000	          0.00000000	          1.32160300	          0.00000000	         -0.09070900	          0.00000000	          0.00000000	          0.00000000	         46.42242900	        530.64746900	         62.43865200	          0.98559300	          0.00600000	         -0.36335900	          0.00000000	          3.54445000	          0.00000000	
          1.01250000	          0.00000000	          0.00000000	          0.00000000	          1.32288400	          0.00000000	         -0.09073600	          0.00000000	          0.00000000	          0.00000000	         46.74310900	        531.72934100	         62.60560400	          0.98564900	          0.00600000	         -0.36335500	          0.00000000	          3.54234700	          0.00000000	
          1.01300000	          0.00000000	          0.00000000	          0.00000000	          1.32416500	          0.00000000	         -0.09076200	          0.00000000	          0.00000000	          0.00000000	         47.06442400	        532.81069400	         62.77260100	          0.98570500	          0.00600000	         -0.36335200	          0.00000000	          3.54017800	          0.00000000	
          1.01350000	          0.00000000	          0.00000000	          0.00000000	          1.32544600	          0.00000000	         -0.09078900	          0.00000000	          0.00000000	          0.00000000	         47.38636200	        533.89139700	         62.93962500	          0.98576100	          0.00600000	         -0.36334900	          0.00000000	          3.53794400	          0.00000000	
          1.01400000	          0.00000000	          0.00000000	          0.00000000	          1.32672800	          0.00000000	         -0.09081600	          0.00000000	          0.00000000	          0.00000000	         47.70891500	        534.97131800	         63.10665400	          0.98581800	          0.00600000	         -0.36334500	          0.00000000	          3.53564500	          0.00000000	
          1.01450000	          0.00000000	          0.00000000	          0.00000000	          1.32800900	          0.00000000	         -0.09084300	          0.00000000	          0.00000000	          0.00000000	         48.03207100	        536.05032400	         63.27367100	          0.98587400	          0.00600000	         -0.36334200	          0.00000000	          3.53328000	          0.00000000	
          1.01500000	          0.00000000	          0.00000000	          0.00000000	          1.32929000	          0.00000000	         -0.09087000	          0.00000000	          0.00000000	          0.00000000	         48.35582100	        537.12828500	         63.44065300	          0.98593000	          0.00600000	         -0.36333900	          0.00000000	          3.53085100	          0.00000000	
          1.01550000	          0.00000000	          0.00000000	          0.00000000	          1.33057200	          0.00000000	         -0.09089700	          0.00000000	          0.00000000	          0.00000000	         48.68015200	        538.20506600	         63.60758300	          0.98598700	          0.00600000	         -0.36333600	          0.00000000	          3.52835600	          0.00000000	
          1.01600000	          0.00000000	          0.00000000	          0.00000000	          1.33185300	          0.00000000	         -0.09092400	          0.00000000	          0.00000000	          0.00000000	         49.00505500	        539.28053700	         63.77443900	          0.98604400	          0.00600000	         -0.36333200	          0.00000000	          3.52579800	          0.00000000	
          1.01650000	          0.00000000	          0.00000000	          0.00000000	          1.33313400	          0.00000000	         -0.09095000	          0.00000000	          0.00000000	          0.00000000	         49.33051800	        540.35456400	         63.94120100	          0.98610100	          0.00600000	         -0.36332900	          0.00000000	          3.52317500	          0.00000000	
          1.01700000	          0.00000000	          0.00000000	          0.00000000	          1.33441600	          0.00000000	         -0.09097700	          0.00000000	          0.00000000	          0.00000000	         49.65653000	        541.42701500	         64.10785000	          0.98615800	          0.00600000	         -0.36332600	          0.00000000	          3.52048800	          0.00000000	
          1.01750000	          0.00000000	          0.00000000	          0.00000000	          1.33569700	          0.00000000	         -0.09100400	          0.00000000	          0.00000000	          0.00000000	         49.98307900	        542.49775600	         64.27436500	          0.98621500	          0.00600000	         -0.36332300	          0.00000000	          3.51773700	          0.00000000	
